<svg t="1561684496859" class="icon" viewBox="0 0 1024 1024" version="1.1" xmlns="http://www.w3.org/2000/svg" p-id="3824" width="32" height="32"><path d="M512 512m-512 0a512 512 0 1 0 1024 0 512 512 0 1 0-1024 0Z" fill="#62B3EA" p-id="3825" data-spm-anchor-id="a313x.7781069.0.i4" class="selected"></path><path d="M597.835294 252.084706v3.614118a85.835294 85.835294 0 1 1-171.670588 0v-3.614118h-108.42353V722.823529a50.597647 50.597647 0 0 0 50.296471 50.597647h287.623529A50.296471 50.296471 0 0 0 706.258824 722.823529V252.084706z" fill="#FFFFFF" p-id="3826"></path><path d="M266.24 522.541176L201.788235 397.854118l116.555294-145.769412 96.075295 46.983529-148.178824 223.472941zM757.76 522.541176l64.451765-124.687058-116.555294-145.769412-96.075295 46.983529 148.178824 223.472941z" fill="#FFFFFF" p-id="3827"></path></svg>