<svg t="1561638792391" class="icon" viewBox="0 0 1024 1024" version="1.1" xmlns="http://www.w3.org/2000/svg" p-id="12758" width="32" height="32"><path d="M1024 512c0 282.769408-229.230592 512-512 512S0 794.769408 0 512 229.230592 0 512 0s512 229.230592 512 512" fill="#7AB470" p-id="12759"></path><path d="M753.724416 588.184576c0 3.99872-1.998848 91.974656-131.960832 127.96416-7.999488 2.000896-11.997184 9.997312-11.997184 15.99488v23.993344H409.821184v-23.993344c0-7.996416-5.997568-13.993984-11.997184-15.99488-127.963136-35.989504-131.963904-123.96544-131.963904-127.96416v-83.975168H755.72224l-1.997824 83.975168z m17.993728-119.965696H383.827968L767.720448 348.25216c9.998336-1.999872 13.996032-11.99616 11.997184-21.992448-1.998848-9.998336-11.997184-13.996032-21.992448-11.99616L271.860736 468.21888H249.86624a17.921024 17.921024 0 0 0-17.994752 17.9968v101.96992c0 3.99872 1.998848 111.96928 143.961088 157.958144v27.992064a17.923072 17.923072 0 0 0 5.248 12.746752 17.937408 17.937408 0 0 0 12.746752 5.246976H629.76a17.928192 17.928192 0 0 0 12.746752-5.246976 17.92512 17.92512 0 0 0 5.250048-12.746752v-27.992064C789.715968 700.15488 791.714816 592.18432 791.714816 588.1856v-101.96992c-1.999872-9.998336-9.998336-17.9968-19.996672-17.9968z m0 0" fill="#FFFFFF" p-id="12760"></path><path d="M315.846656 574.188544h383.894528a17.910784 17.910784 0 0 0 12.74368-5.249024 17.911808 17.911808 0 0 0 5.250048-12.74368 17.913856 17.913856 0 0 0-5.250048-12.746752 17.912832 17.912832 0 0 0-12.74368-5.251072H315.846656a17.92512 17.92512 0 0 0-17.994752 17.997824 17.931264 17.931264 0 0 0 5.248 12.745728 17.93024 17.93024 0 0 0 12.746752 5.246976z m-65.98144-153.954304h5.999616l485.865472-153.956352c9.995264-2.00192 13.99296-11.997184 11.994112-21.994496-1.998848-9.998336-11.994112-13.996032-21.992448-11.998208L245.866496 386.241536c-9.997312 1.998848-13.996032 11.997184-11.997184 21.994496 1.999872 7.996416 8.000512 11.998208 15.995904 11.998208z m0 0" fill="#FFFFFF" p-id="12761"></path></svg>