<svg t="1561637952184" class="icon" viewBox="0 0 1024 1024" version="1.1" xmlns="http://www.w3.org/2000/svg" p-id="23798" width="32" height="32"><path d="M398.628571 491.885714h234.057143c10.971429 0 20.114286-9.142857 20.114286-20.114285-1.828571-10.971429-9.142857-20.114286-20.114286-20.114286H398.628571c-10.971429 0-20.114286 9.142857-20.114285 20.114286s10.971429 20.114286 20.114285 20.114285zM398.628571 577.828571h234.057143c10.971429 0 20.114286-9.142857 20.114286-20.114285-1.828571-10.971429-9.142857-20.114286-20.114286-20.114286H398.628571c-10.971429 0-20.114286 9.142857-20.114285 20.114286s10.971429 20.114286 20.114285 20.114285zM519.314286 621.714286h-122.514286c-7.314286 0-16.457143 7.314286-16.457143 16.457143s7.314286 16.457143 16.457143 16.457142h122.514286c9.142857 0 16.457143-7.314286 16.457143-16.457142-1.828571-9.142857-9.142857-16.457143-16.457143-16.457143z" fill="#69BF92" p-id="23799"></path><path d="M512 100.571429C285.257143 100.571429 100.571429 285.257143 100.571429 512S285.257143 923.428571 512 923.428571 923.428571 738.742857 923.428571 512 740.571429 100.571429 512 100.571429z m80.457143 223.085714c0-10.971429 9.142857-20.114286 20.114286-20.114286s20.114286 9.142857 20.114285 20.114286v40.228571c0 10.971429-9.142857 20.114286-20.114285 20.114286s-20.114286-9.142857-20.114286-20.114286v-40.228571z m-96.914286 0c0-10.971429 9.142857-20.114286 20.114286-20.114286 10.971429 0 20.114286 9.142857 20.114286 20.114286v40.228571c0 10.971429-9.142857 20.114286-20.114286 20.114286-10.971429 0-20.114286-9.142857-20.114286-20.114286v-40.228571z m-96.914286 0c0-10.971429 9.142857-20.114286 20.114286-20.114286 10.971429 0 20.114286 9.142857 20.114286 20.114286v40.228571c0 10.971429-9.142857 20.114286-20.114286 20.114286-10.971429 0-20.114286-9.142857-20.114286-20.114286v-40.228571zM347.428571 720.457143c-10.971429 0-20.114286-9.142857-20.114285-20.114286V363.885714c0-10.971429 9.142857-20.114286 20.114285-20.114285h32.914286v20.114285c0 20.114286 16.457143 40.228571 40.228572 40.228572 20.114286 0 40.228571-16.457143 40.228571-40.228572v-20.114285h20.114286v20.114285c0 20.114286 16.457143 40.228571 40.228571 40.228572 20.114286 0 40.228571-16.457143 40.228572-40.228572v-20.114285h20.114285v20.114285c0 20.114286 16.457143 40.228571 40.228572 40.228572 20.114286 0 40.228571-16.457143 40.228571-40.228572v-20.114285H694.857143c10.971429 0 20.114286 9.142857 20.114286 20.114285v246.857143c-10.971429 0-20.114286 3.657143-27.428572 10.971429L658.285714 645.485714c-7.314286-7.314286-16.457143-10.971429-25.6-10.971428-20.114286 0-40.228571 16.457143-40.228571 40.228571 0 10.971429 3.657143 20.114286 10.971428 27.428572l18.285715 18.285714H347.428571z m369.371429-58.514286L665.6 713.142857c-3.657143 3.657143-7.314286 5.485714-12.8 5.485714s-10.971429-1.828571-12.8-5.485714l-25.6-25.6c-3.657143-3.657143-5.485714-7.314286-5.485714-12.8 0-10.971429 9.142857-20.114286 20.114285-20.114286 5.485714 0 10.971429 1.828571 12.8 5.485715l10.971429 10.971428 38.4-38.4c3.657143-3.657143 7.314286-5.485714 12.8-5.485714 10.971429 0 20.114286 9.142857 20.114286 20.114286-1.828571 5.485714-3.657143 10.971429-7.314286 14.628571z" fill="#69BF92" p-id="23800"></path></svg>