<svg t="1561638271764" class="icon" viewBox="0 0 1024 1024" version="1.1" xmlns="http://www.w3.org/2000/svg" p-id="27379" width="32" height="32"><path d="M419.946667 492.8a74.666667 74.666667 0 1 0-74.666667-74.666667 74.666667 74.666667 0 0 0 74.666667 74.666667z m0-106.666667a32 32 0 1 1-32 32 32 32 0 0 1 32-32.106666z" fill="#3280C9" p-id="27380"></path><path d="M512 0a512 512 0 1 0 512 512A512 512 0 0 0 512 0zM302.613333 418.026667a10.666667 10.666667 0 0 1 10.666667-10.666667h11.306667a95.146667 95.146667 0 0 1 7.466666-27.733333l-9.813333-5.653334a10.666667 10.666667 0 0 1 10.666667-18.453333l9.92 5.653333A96.64 96.64 0 0 1 362.666667 341.333333l-5.333334-10.666666a10.666667 10.666667 0 1 1 18.453334-10.666667l5.653333 9.813333a95.146667 95.146667 0 0 1 27.733333-7.466666v-10.986667a10.666667 10.666667 0 1 1 21.333334 0v11.306667A95.146667 95.146667 0 0 1 458.666667 330.666667l5.333333-10.666667a10.666667 10.666667 0 1 1 18.453333 10.666667l-5.653333 10.666666a96.64 96.64 0 0 1 20.266667 20.266667l9.92-5.653333a10.666667 10.666667 0 1 1 10.666666 18.453333l-9.813333 5.653333a95.146667 95.146667 0 0 1 7.466667 27.733334h11.306666a10.666667 10.666667 0 0 1 0 21.333333h-11.306666a95.146667 95.146667 0 0 1-7.466667 27.733333l9.813333 5.653334a10.666667 10.666667 0 0 1-10.666666 18.453333l-9.92-5.653333a96.64 96.64 0 0 1-20.266667 20.266666l5.653333 9.92a10.666667 10.666667 0 0 1-18.453333 10.666667l-5.333333-10.133333a95.146667 95.146667 0 0 1-27.733334 7.466666v11.306667a10.666667 10.666667 0 0 1-21.333333 0v-11.306667a95.146667 95.146667 0 0 1-27.733333-7.466666l-5.653334 9.813333a10.666667 10.666667 0 1 1-18.453333-10.666667l5.653333-9.92a96.64 96.64 0 0 1-20.266666-20.266666l-9.92 5.653333a10.666667 10.666667 0 0 1-10.666667-18.453333l9.813333-5.653334a95.146667 95.146667 0 0 1-7.466666-27.733333h-11.626667a10.666667 10.666667 0 0 1-10.666667-10.773333z m432 246.826666H317.76a10.666667 10.666667 0 0 1 0-21.333333h416.853333a10.666667 10.666667 0 0 1 0 21.333333z m0-89.813333H317.76a10.666667 10.666667 0 0 1 0-21.333333h416.853333a10.666667 10.666667 0 0 1 0 21.333333z m0-99.52h-160a10.666667 10.666667 0 1 1 0-21.333333h160a10.666667 10.666667 0 0 1 0 21.333333z m0-99.52h-160a10.666667 10.666667 0 1 1 0-21.333333h160a10.666667 10.666667 0 0 1 0 21.333333z" fill="#3280C9" p-id="27381"></path></svg>