<svg t="1561951386733" class="icon" viewBox="0 0 1365 1024" version="1.1" xmlns="http://www.w3.org/2000/svg" p-id="1392" width="32" height="32"><path d="M0 0h1365.313264v1024H0z" fill="#F2F4F5" p-id="1393"></path><path d="M731.514581 614.502352a25.9492 25.9492 0 0 0-1.053621-34.047037l-125.501412-133.478833-34.76952-34.769521a7.285042 7.285042 0 0 0-10.385701 0L299.58984 727.239887V231.074318a26.430856 26.430856 0 0 1 26.581374-23.360301h354.709313l57.437441-65.926623H291.070555a57.437441 57.437441 0 0 0-57.437441 58.430856v633.919097A58.671684 58.671684 0 0 0 292.003763 892.62841h198.351834l240.827846-278.126058z m86.156162-260.575729a98.920038 98.920038 0 1 0 98.920038-98.920038 98.709313 98.709313 0 0 0-99.070555 98.920038z" fill="#D5D6D6" p-id="1394"></path><path d="M1098.325494 141.215428H905.813735c-1.926623 2.498589-55.841957 65.956726-55.841957 65.956726H1062.652869c14.35936 0 25.527752 8.579492 26.581374 22.938853l1.053622 496.707431-205.817498-220.176858a34.167451 34.167451 0 0 0-26.581374-12.222013c-10.084666 0-17.550329 5.298213-26.581373 11.168392l-9.031044 7.435559 60.62841 64.873001c9.031044 9.031044 9.031044 23.390405 1.053622 34.047037l-242.453434 278.577611h456.82032a57.437441 57.437441 0 0 0 57.437441-58.491064V199.164628a57.196613 57.196613 0 0 0-57.437441-57.979303z" fill="#D5D6D6" p-id="1395"></path></svg>